<svg width="211" height="69" viewBox="0 0 211 69" fill="none" xmlns="http://www.w3.org/2000/svg">
<path d="M4.25959 28.6404L5.61023 29.7682L6.79092 28.4398L5.3732 27.2318L4.32667 28.4398L2.97603 27.2808L1.7998 28.6404L3.21306 29.8172L4.25959 28.6404Z" fill="white"/>
<path d="M10.4493 42.0044L9.09866 40.8455L7.91797 42.2095L9.3357 43.3863L10.3822 42.2095L11.7329 43.3328L12.9136 42.0044L11.4958 40.7964L10.4493 42.0044Z" fill="white"/>
<path d="M34.497 34.8945C34.497 33.1248 34.1661 31.7429 33.5042 30.7533C32.8423 29.7593 31.9925 29.2645 30.9594 29.2645C30.0247 29.2645 29.2376 29.6523 28.598 30.4324C27.9585 31.2125 27.6365 32.1575 27.6365 33.263C27.6365 35.0906 28.6562 36.0044 30.6911 36.0044C31.4424 36.0044 32.1177 35.9108 32.717 35.7191C32.717 35.9777 32.6992 36.2585 32.6678 36.5616C31.4648 36.896 29.4925 37.0654 26.7465 37.0654H26.4245C26.4245 37.0654 26.42 37.0654 26.4155 37.0654H26.0443C25.4942 37.0654 25.1141 36.9628 24.9084 36.7622C24.6982 36.5616 24.5237 36.1337 24.3761 35.4829C23.8484 33.2986 22.8064 32.2065 21.2545 32.2065C20.4002 32.2065 19.7204 32.4249 19.224 32.8573C18.7231 33.2942 18.2535 33.9361 17.8197 34.7786C17.8063 34.8098 17.7884 34.841 17.7705 34.8766C17.7526 34.9123 17.7347 34.9435 17.7258 34.9658C17.7124 34.9925 17.699 35.0148 17.69 35.0327C17.4888 35.4205 17.3456 35.7013 17.2562 35.8752C17.1667 36.049 17.0371 36.2496 16.8671 36.4725C16.6972 36.6954 16.5227 36.8514 16.3438 36.9361C16.1649 37.0208 15.9547 37.0609 15.7177 37.0609H15.3286C14.4744 37.0609 13.7454 36.9673 13.1372 36.7756C13.2043 36.3833 13.24 35.9465 13.24 35.4651V33.1783L11.2141 33.3298V35.6835C11.2141 36.1337 11.0665 36.4725 10.7668 36.7087C10.4672 36.945 9.86344 37.0609 8.95555 37.0609H8.70063H8.49938C7.86878 37.0609 7.43496 36.9673 7.19346 36.7756C6.95195 36.5839 6.8312 36.2229 6.8312 35.6835V30.7578C5.60578 30.7578 4.48323 30.9495 3.45906 31.3284C2.4349 31.7073 1.60305 32.2823 0.963504 33.0535C0.323961 33.8202 0.00195312 34.7028 0.00195312 35.7013C0.00195312 36.5661 0.337378 37.208 1.00375 37.6359C1.6746 38.0639 2.58696 38.2734 3.74529 38.2734C4.21936 38.2734 4.73368 38.2377 5.29719 38.1709C5.71312 39.0446 6.55839 39.4814 7.82853 39.4814H8.7051H9.17917C10.4851 39.4814 11.4511 39.2229 12.0817 38.7102C12.7883 39.2273 13.7588 39.4814 14.9843 39.4814H15.5746C16.3841 39.4814 17.0684 39.2184 17.6274 38.6924C18.5353 39.2318 19.6668 39.4992 21.0264 39.4992C22.0729 39.4992 22.9808 39.2808 23.759 38.844C24.2554 39.2719 24.9799 39.4814 25.9325 39.4814H26.42C26.42 39.4814 26.4245 39.4814 26.4289 39.4814H26.8493C30.2662 39.4814 32.6678 39.107 34.0498 38.3536C34.3539 37.5379 34.506 36.3833 34.506 34.89L34.497 34.8945ZM31.4782 34.1723C30.1052 34.1723 29.4209 33.7533 29.4209 32.9108C29.4209 32.4963 29.5417 32.1218 29.7832 31.783C30.0247 31.4487 30.3825 31.2793 30.8521 31.2793C31.3217 31.2793 31.7108 31.5245 32.0059 32.0104C32.3056 32.4963 32.5068 33.1783 32.6231 34.052C32.2653 34.1322 31.8807 34.1679 31.4782 34.1679V34.1723ZM4.91704 35.9197V36.1203C4.73815 36.1426 4.47875 36.156 4.13886 36.156C3.37409 36.156 2.78821 36.0624 2.3857 35.8707C1.97872 35.679 1.77747 35.4383 1.77747 35.1486C1.77747 34.734 2.06817 34.315 2.6451 33.887C3.22203 33.4591 3.98233 33.1872 4.91257 33.0624V35.9197H4.91704ZM21.2545 37.2793C20.3645 37.2793 19.5594 37.1411 18.8394 36.8648L18.9915 36.5616C19.4432 35.6746 19.8099 35.0951 20.0961 34.8098C20.3824 34.529 20.7267 34.3863 21.1337 34.3863C21.572 34.3863 21.9029 34.5824 22.1221 34.9747C22.3412 35.367 22.5693 36.049 22.8064 37.0252C22.3547 37.1946 21.8403 37.2793 21.2545 37.2793Z" fill="white"/>
<path d="M30.8879 27.3967L32.2385 28.5245L33.4192 27.1961L32.0015 25.9881L30.9594 27.1961L29.6088 26.0371L28.4281 27.3967L29.8458 28.5735L30.8879 27.3967Z" fill="white"/>
<path d="M44.3987 27.4814C44.4345 30.3298 44.4479 32.5542 44.4479 34.1545C44.4479 35.2645 44.4255 36.1738 44.3808 36.8781C43.8307 37.003 43.2225 37.0609 42.5606 37.0609H42.006C41.04 37.0609 40.3915 36.731 40.065 36.0713C39.9979 35.9465 39.9308 35.8128 39.8727 35.6657C39.8101 35.5186 39.7609 35.3893 39.7206 35.2689C39.6804 35.1486 39.6357 34.9926 39.5775 34.7875C39.5194 34.5869 39.4791 34.4309 39.4523 34.3239C39.4255 34.2169 39.3763 34.0297 39.3092 33.7622C39.2421 33.4948 39.1974 33.3031 39.175 33.1917L37.167 33.7979C37.6276 35.4339 37.8602 36.6553 37.8602 37.4621C37.8602 38.416 37.6142 39.2229 37.1178 39.8826C36.6213 40.5423 35.8431 40.8722 34.7743 40.8722C34.4701 40.8722 34.1794 40.8499 33.8977 40.8053L33.7098 42.8068C34.2376 42.9183 34.7608 42.9762 35.2796 42.9762C36.5274 42.9762 37.5203 42.5973 38.2582 41.8395C38.9961 41.0817 39.4568 40.0698 39.6491 38.8038C40.1679 39.2541 40.8924 39.477 41.8226 39.477H42.5293C43.1822 39.477 43.8486 39.3967 44.5373 39.2407C45.2216 39.0847 45.7628 38.8975 46.1563 38.688C46.3352 38.1263 46.4515 37.4933 46.5007 36.7801C46.5499 36.0668 46.5767 35.0728 46.5767 33.7979C46.5767 32.4071 46.5723 30.2407 46.5588 27.2942L44.3987 27.4814Z" fill="white"/>
<path d="M48.7012 39.4859H50.8434V27.2986L48.7012 27.4814V39.4859Z" fill="white"/>
<path d="M60.9956 28.6404L62.3418 29.7682L63.5225 28.4398L62.1092 27.2318L61.0627 28.4398L59.7121 27.2808L58.5314 28.6404L59.9491 29.8172L60.9956 28.6404Z" fill="white"/>
<path d="M66.9795 41.9911L65.6333 40.8276L64.4526 42.1917L65.8659 43.3685L66.9124 42.1917L68.2631 43.315L69.4438 41.9911L68.026 40.7786L66.9795 41.9911Z" fill="white"/>
<path d="M67.2837 32.9465C67.6101 34.2258 67.7711 35.5007 67.7711 36.7801C67.1629 36.9717 66.4205 37.0654 65.5439 37.0654H65.2219C64.5913 37.0654 64.1575 36.9717 63.916 36.7801C63.6745 36.5884 63.5537 36.2273 63.5537 35.6879V30.7622C62.3283 30.7622 61.2058 30.9539 60.1816 31.3328C59.1574 31.7117 58.3256 32.2868 57.686 33.0579C57.0465 33.8246 56.7245 34.7073 56.7245 35.7058C56.7245 36.5706 57.0599 37.2125 57.7263 37.6404C58.3971 38.0683 59.3095 38.2778 60.4678 38.2778C60.9419 38.2778 61.4562 38.2422 62.0197 38.1753C62.4357 39.049 63.2809 39.4859 64.5511 39.4859H65.5126C66.2327 39.4859 66.9393 39.4012 67.628 39.2318C68.3168 39.0624 68.8713 38.8573 69.2873 38.6077C69.5243 37.89 69.6406 36.9584 69.6406 35.8172C69.6406 34.6761 69.5153 33.5706 69.2694 32.5052L67.2792 32.942L67.2837 32.9465ZM61.653 35.9197V36.1203C61.4741 36.1426 61.2147 36.156 60.8793 36.156C60.1145 36.156 59.5286 36.0624 59.1261 35.8707C58.7236 35.679 58.5179 35.4383 58.5179 35.1486C58.5179 34.734 58.8086 34.315 59.3855 33.8871C59.9625 33.4591 60.7183 33.1872 61.653 33.0624V35.9197Z" fill="white"/>
<path d="M74.7748 31.0297L73.2408 32.6612C74.0369 33.3789 74.6675 34.0832 75.1282 34.7697C75.5888 35.4606 75.9198 36.2229 76.121 37.0654C75.3786 37.2125 74.5378 37.2838 73.5897 37.2838C72.8249 37.2838 71.9931 37.2481 71.0941 37.1813V39.5171C71.7694 39.6062 72.5118 39.6508 73.3213 39.6508C75.3339 39.6508 76.8232 39.3878 77.7892 38.8618C77.8921 38.2555 77.9413 37.7474 77.9413 37.3328C77.9413 34.9703 76.8858 32.8662 74.7704 31.0297H74.7748Z" fill="white"/>
<path d="M116.144 27.4814C116.18 30.3298 116.193 32.5542 116.193 34.1545C116.193 35.2645 116.171 36.1738 116.126 36.8781C115.576 37.0029 114.968 37.0609 114.306 37.0609H113.952C113.04 37.0609 112.423 36.9673 112.096 36.7756C112.132 36.5082 112.146 36.2139 112.146 35.9019V33.6151L110.24 33.7845V35.9376C110.24 36.6865 109.802 37.0654 108.926 37.0654C108.049 37.0654 107.611 36.6553 107.611 35.8395V33.9227L105.688 34.0386V35.6166C105.688 36.0891 105.527 36.4368 105.2 36.6686C104.874 36.9004 104.458 37.0119 103.952 37.0119C103.447 37.0119 102.959 36.9004 102.553 36.6775C102.642 36.2184 102.691 35.8261 102.705 35.5007L102.79 34.1233L100.884 34.257L100.799 35.4651C100.741 36.0802 100.594 36.5037 100.352 36.7266C100.111 36.9495 99.7528 37.0609 99.2832 37.0609H97.8834C96.9621 37.0609 96.1168 36.9762 95.3521 36.8068C96.0363 36.1783 96.5819 35.4784 96.98 34.6983C97.378 33.9183 97.6329 33.1426 97.7492 32.3714C96.6133 31.7786 95.1463 31.4799 93.3485 31.4799C91.7653 31.4799 90.3028 31.6939 88.9656 32.1174C89.0014 33.049 89.2339 33.9138 89.6722 34.7206C90.1105 35.5275 90.6338 36.2006 91.242 36.7399C90.3744 36.9539 89.3636 37.0609 88.2053 37.0609H86.8546C86.8189 35.4606 86.4566 34.1991 85.7679 33.2808C85.0746 32.3625 84.1981 31.9034 83.1292 31.9034C82.1497 31.9034 81.3403 32.3046 80.6918 33.1114C80.0433 33.9183 79.7213 34.9034 79.7213 36.0713C79.7213 37.0564 79.9673 37.8321 80.4547 38.3982C80.9422 38.9643 81.7964 39.2451 83.0084 39.2451C83.6927 39.2451 84.2786 39.2184 84.7616 39.1605C84.5916 39.6107 84.216 40.0119 83.6301 40.3729C83.0442 40.7295 82.2571 40.9123 81.2687 40.9123C80.7946 40.9123 80.3474 40.8722 79.9181 40.7964L79.7168 42.7979C80.3698 42.9673 80.9869 43.052 81.5728 43.052C84.2607 43.052 85.9289 41.8618 86.5818 39.4903H88.25C90.1284 39.4903 91.7921 39.1203 93.2411 38.3804C94.5336 39.1203 96.1168 39.4903 97.9952 39.4903H99.006C99.8959 39.4903 100.634 39.2719 101.233 38.835C101.94 39.3298 102.825 39.575 103.881 39.575C105.142 39.575 106.032 39.2674 106.564 38.6523C107.07 39.2585 107.825 39.5616 108.823 39.5616C109.82 39.5616 110.656 39.2853 111.215 38.737C111.989 39.2407 112.861 39.4948 113.827 39.4948H114.266C114.918 39.4948 115.585 39.4145 116.274 39.2585C116.958 39.1025 117.499 38.9153 117.893 38.7058C118.071 38.1441 118.188 37.5111 118.237 36.7979C118.286 36.0847 118.313 35.0906 118.313 33.8157C118.313 32.4249 118.309 30.2585 118.295 27.312L116.135 27.4992L116.144 27.4814ZM83.7285 37.0609C82.9413 37.0609 82.3823 36.945 82.0514 36.7177C81.7204 36.4903 81.5549 36.156 81.5549 35.7191C81.5549 35.2823 81.6802 34.9123 81.9261 34.578C82.1721 34.2437 82.5344 34.0743 83.004 34.0743C83.5764 34.0743 84.0371 34.3863 84.377 35.0148C84.7213 35.6434 84.9092 36.3254 84.9405 37.0654H83.7285V37.0609ZM93.3932 36.2229C92.4808 35.63 91.7474 34.7786 91.1838 33.6686C91.9039 33.5438 92.5658 33.4859 93.174 33.4859C93.9925 33.4859 94.7796 33.5973 95.5354 33.8202C94.9272 34.8945 94.2161 35.6969 93.3932 36.2229Z" fill="white"/>
<path d="M120.442 27.4814V39.4859H122.584V27.2986L120.442 27.4814Z" fill="white"/>
<path d="M29.8861 60.8247V49.0565H33.4953C35.2932 49.0565 36.7109 49.5825 37.744 50.6345C38.7771 51.6865 39.2959 53.1174 39.2959 54.9227C39.2959 56.7281 38.7771 58.1768 37.735 59.2333C36.693 60.2942 35.2797 60.8202 33.4953 60.8202H29.8861V60.8247ZM33.4461 50.5721H31.6437V59.3135H33.4461C34.7833 59.3135 35.7896 58.9257 36.456 58.1545C37.1268 57.3834 37.4578 56.3046 37.4578 54.9272C37.4578 53.5498 37.1268 52.4933 36.4604 51.7266C35.7985 50.9599 34.7923 50.5765 33.4416 50.5765L33.4461 50.5721Z" fill="white"/>
<path d="M42.2655 50.8217C41.9301 50.8217 41.6662 50.7281 41.4828 50.5364C41.2995 50.3447 41.2056 50.0951 41.2056 49.7786C41.2056 49.4621 41.2995 49.2303 41.4918 49.0476C41.6841 48.8648 41.939 48.7712 42.2655 48.7712C42.592 48.7712 42.8469 48.8648 43.0347 49.0476C43.2226 49.2348 43.312 49.4755 43.312 49.7786C43.312 50.0817 43.2181 50.3447 43.0347 50.5364C42.8514 50.7281 42.592 50.8217 42.2655 50.8217ZM43.1242 52.3016V60.8247H41.4202V52.3016H43.1242Z" fill="white"/>
<path d="M48.8757 64.0342C47.8291 64.0342 46.8899 63.8737 46.0581 63.5483L46.4114 62.1709C47.1404 62.4517 47.9275 62.5899 48.7728 62.5899C49.5152 62.5899 50.0832 62.425 50.4768 62.104C50.8703 61.7786 51.0671 61.3239 51.0671 60.7444V60.0401C50.5036 60.3299 49.8864 60.477 49.2111 60.477C47.9991 60.477 47.0375 60.1248 46.3354 59.4161C45.6332 58.7117 45.2799 57.7266 45.2799 56.4562C45.2799 55.1233 45.6735 54.0624 46.4606 53.2779C47.2477 52.4933 48.2987 52.101 49.6136 52.101C50.7719 52.101 51.8229 52.3239 52.7666 52.7742V60.5929C52.7666 61.6895 52.4222 62.5409 51.729 63.1382C51.0358 63.7355 50.0832 64.0386 48.8712 64.0386L48.8757 64.0342ZM47.0196 56.318C47.0196 57.1605 47.2343 57.8202 47.6592 58.3016C48.0841 58.7831 48.6833 59.0238 49.4481 59.0238C50.0653 59.0238 50.6064 58.8767 51.0671 58.5869V53.795C50.5707 53.6166 50.0877 53.5275 49.6181 53.5275C48.8175 53.5275 48.1869 53.7771 47.7218 54.2764C47.2567 54.7756 47.0196 55.4577 47.0196 56.318Z" fill="white"/>
<path d="M56.2952 50.8217C55.9597 50.8217 55.6959 50.7281 55.5125 50.5364C55.3247 50.3447 55.2352 50.0951 55.2352 49.7786C55.2352 49.4621 55.3292 49.2303 55.5215 49.0476C55.7138 48.8648 55.9687 48.7712 56.2952 48.7712C56.6217 48.7712 56.8766 48.8648 57.0644 49.0476C57.2523 49.2303 57.3417 49.4755 57.3417 49.7786C57.3417 50.0817 57.2478 50.3447 57.0644 50.5364C56.881 50.7281 56.6217 50.8217 56.2952 50.8217ZM57.1539 52.3016V60.8247H55.4499V52.3016H57.1539Z" fill="white"/>
<path d="M64.1218 60.8559C63.6701 60.9673 63.2184 61.0253 62.7578 61.0253C60.9375 61.0253 60.0252 60.0357 60.0252 58.052V53.6835H58.8087V52.3061H60.0252V50.3581L61.7291 50.2734V52.3061H63.8356V53.6835H61.7291V58.0386C61.7291 59.0817 62.1674 59.6033 63.044 59.6033C63.4018 59.6033 63.7283 59.5632 64.0235 59.4874L64.1263 60.8648L64.1218 60.8559Z" fill="white"/>
<path d="M71.9662 60.2541C71.0538 60.7712 69.9045 61.0253 68.5091 61.0253C67.4402 61.0253 66.6218 60.789 66.0448 60.321C65.4724 59.8484 65.1862 59.2333 65.1862 58.471C65.1862 57.6285 65.4903 56.9866 66.0985 56.5364C66.7067 56.0906 67.5073 55.8633 68.5091 55.8633C69.1486 55.8633 69.7435 55.9257 70.298 56.0461V55.3418C70.298 54.1293 69.6406 53.5275 68.3257 53.5275C67.5073 53.5275 66.7515 53.6657 66.0672 53.9465L65.7318 52.5869C66.5189 52.2615 67.4402 52.101 68.4957 52.101C69.6406 52.101 70.5082 52.3863 71.0941 52.9569C71.68 53.5275 71.9707 54.3522 71.9707 55.4265V60.2496L71.9662 60.2541ZM68.6612 59.7504C69.3454 59.7504 69.891 59.6345 70.298 59.3982V57.1961C69.7569 57.0624 69.2291 56.9955 68.7148 56.9955C67.5028 56.9955 66.8946 57.4681 66.8946 58.4086C66.8946 59.3492 67.4849 59.7548 68.6656 59.7548L68.6612 59.7504Z" fill="white"/>
<path d="M76.1837 48.6553V58.101C76.1837 58.6181 76.2597 58.997 76.4207 59.2377C76.5772 59.4784 76.8411 59.5988 77.2123 59.5988C77.4046 59.5988 77.5656 59.581 77.6998 59.5498L77.8339 60.9094C77.5209 60.9896 77.1989 61.0253 76.8724 61.0253C75.2758 61.0253 74.4752 60.0579 74.4752 58.1189V48.7578L76.1792 48.6553H76.1837Z" fill="white"/>
<path d="M82.9101 60.37L83.2455 58.841C84.3591 59.2689 85.4101 59.4785 86.3985 59.4785C88.004 59.4785 88.8091 58.8945 88.8091 57.7311C88.8091 57.1248 88.6033 56.6746 88.1919 56.3759C87.7804 56.0773 87.0917 55.7741 86.1257 55.4621C85.0702 55.1144 84.2786 54.6865 83.7553 54.1783C83.2321 53.6701 82.9727 52.9658 82.9727 52.0698C82.9727 51.0401 83.317 50.2467 84.0013 49.6894C84.6856 49.1322 85.6471 48.8559 86.886 48.8559C87.9638 48.8559 88.9611 49.0431 89.869 49.4131L89.5157 50.8752C88.5944 50.5631 87.7491 50.4027 86.9844 50.4027C85.4995 50.4027 84.7571 50.942 84.7571 52.0163C84.7571 52.5557 84.9271 52.9569 85.2625 53.2244C85.5979 53.4918 86.1749 53.7637 86.9844 54.0312C87.4584 54.1872 87.843 54.3299 88.1472 54.4502C88.4513 54.575 88.7733 54.74 89.1177 54.945C89.462 55.1545 89.7259 55.3774 89.9182 55.6181C90.1105 55.8588 90.2715 56.1575 90.3967 56.5097C90.522 56.8618 90.5891 57.263 90.5891 57.7132C90.5891 58.8098 90.2089 59.6389 89.4441 60.1917C88.6794 60.7444 87.6865 61.0253 86.4611 61.0253C85.0881 61.0253 83.9029 60.8068 82.9011 60.37H82.9101Z" fill="white"/>
<path d="M98.7466 60.2541C97.8342 60.7712 96.6849 61.0253 95.2895 61.0253C94.2206 61.0253 93.4022 60.789 92.8252 60.321C92.2528 59.8484 91.9666 59.2333 91.9666 58.471C91.9666 57.6285 92.2707 56.9866 92.8789 56.5364C93.4871 56.0906 94.2877 55.8633 95.2895 55.8633C95.929 55.8633 96.5239 55.9257 97.0784 56.0461V55.3418C97.0784 54.1293 96.421 53.5275 95.1061 53.5275C94.2877 53.5275 93.5319 53.6657 92.8476 53.9465L92.5122 52.5869C93.2993 52.2615 94.2206 52.101 95.2761 52.101C96.421 52.101 97.2886 52.3863 97.8745 52.9569C98.4604 53.5275 98.7511 54.3522 98.7511 55.4265V60.2496L98.7466 60.2541ZM95.4416 59.7504C96.1258 59.7504 96.6714 59.6345 97.0784 59.3982V57.1961C96.5373 57.0624 96.0095 56.9955 95.4952 56.9955C94.2832 56.9955 93.675 57.4681 93.675 58.4086C93.675 59.3492 94.2653 59.7548 95.446 59.7548L95.4416 59.7504Z" fill="white"/>
<path d="M108.393 60.2184C107.293 60.7578 106.05 61.0253 104.668 61.0253C102.365 61.0253 101.211 59.9287 101.211 57.7311V52.3016H102.915V57.7311C102.915 58.9747 103.51 59.5988 104.704 59.5988C105.446 59.5988 106.108 59.4473 106.694 59.1441V52.3016H108.398V60.2184H108.393Z" fill="white"/>
<path d="M118.04 60.3209C117.186 60.7935 116.139 61.0253 114.905 61.0253C113.554 61.0253 112.486 60.6419 111.698 59.8752C110.911 59.1085 110.518 58.052 110.518 56.7058C110.518 55.3596 110.916 54.1872 111.716 53.3536C112.512 52.52 113.613 52.101 115.003 52.101C115.451 52.101 115.898 52.1679 116.336 52.3016V48.7533L118.04 48.6686V60.3165V60.3209ZM112.257 56.6389C112.257 57.5795 112.494 58.3105 112.964 58.8232C113.438 59.3403 114.078 59.5943 114.887 59.5943C115.482 59.5943 115.965 59.4874 116.336 59.2734V53.7949C115.92 53.6166 115.504 53.5275 115.088 53.5275C114.167 53.5275 113.465 53.7949 112.982 54.3343C112.499 54.8737 112.257 55.6404 112.257 56.6389Z" fill="white"/>
<path d="M121.6 50.8217C121.265 50.8217 121.001 50.7281 120.817 50.5364C120.63 50.3447 120.54 50.0951 120.54 49.7786C120.54 49.4621 120.634 49.2303 120.826 49.0476C121.019 48.8648 121.274 48.7712 121.6 48.7712C121.927 48.7712 122.182 48.8648 122.369 49.0476C122.553 49.2348 122.647 49.4755 122.647 49.7786C122.647 50.0817 122.553 50.3447 122.369 50.5364C122.182 50.7281 121.927 50.8217 121.6 50.8217ZM122.459 52.3016V60.8247H120.755V52.3016H122.459Z" fill="white"/>
<path d="M210.93 45.2407C210.273 46.9034 209.611 48.5929 208.972 50.2333L208.372 51.7667C208.01 52.685 207.639 53.6345 207.277 54.5661L203.891 55.7474C205.443 51.8514 207.411 47.162 208.963 43.2615C208.976 43.2259 208.994 43.1902 209.016 43.1412L209.048 43.0788L209.428 42.2585L209.987 43.0743C210.018 43.1189 210.045 43.1545 210.067 43.1902C210.148 43.3195 210.224 43.4443 210.304 43.5736C210.483 43.8633 210.671 44.1664 210.859 44.4562C211.015 44.7013 211.042 44.9643 210.93 45.2452V45.2407Z" fill="url(#paint0_linear_1_77)"/>
<path d="M206.176 41.8395L205.971 42.4591C205.962 42.4814 205.957 42.5037 205.948 42.526C205.93 42.5795 205.912 42.6285 205.895 42.6731L204.736 45.633C203.292 49.315 201.847 53.0015 200.407 56.6835C200.295 56.9643 200.112 57.1382 199.835 57.214C199.459 57.3209 199.074 57.4368 198.708 57.5483C198.547 57.5973 198.386 57.6464 198.225 57.6954C198.18 57.7088 198.14 57.7177 198.081 57.731L198.005 57.7489L197.035 57.9851L203.565 41.63L206.181 41.8351L206.176 41.8395Z" fill="url(#paint1_linear_1_77)"/>
<path d="M200.335 41.4071L200.085 42.0981C200.067 42.1515 200.049 42.1961 200.031 42.2452L198.985 44.9153C197.182 49.5156 195.376 54.1203 193.578 58.7206C193.461 59.0149 193.26 59.1976 192.956 59.2823C192.598 59.3848 192.232 59.4963 191.878 59.6033C191.717 59.6523 191.552 59.7013 191.386 59.7504C191.333 59.7637 191.283 59.7771 191.216 59.7949C191.19 59.7994 191.163 59.8083 191.131 59.8128L190.161 60.049L197.822 40.8499L200.335 41.4071Z" fill="url(#paint2_linear_1_77)"/>
<path d="M195.613 38.5453C194.504 41.3581 193.26 44.5319 192.173 47.3001L191.601 48.7667C190.107 52.5691 188.564 56.5052 187.053 60.3789C186.963 60.6018 186.793 60.9138 186.333 61.0386C185.975 61.1322 185.613 61.2437 185.259 61.3507C185.103 61.3997 184.946 61.4487 184.785 61.4933C184.74 61.5067 184.691 61.5156 184.633 61.5334C184.611 61.5379 184.584 61.5468 184.548 61.5513L183.578 61.7875L193.837 36.0802L195.608 38.5409L195.613 38.5453Z" fill="url(#paint3_linear_1_77)"/>
<path d="M191.556 33.4859C190.921 35.0996 190.291 36.7132 189.655 38.3269L188.967 40.0788L180.197 62.4384C180.197 62.4384 180.188 62.4651 180.183 62.4785C180.129 62.6924 179.973 62.9554 179.57 63.0713C179.128 63.2006 178.689 63.3299 178.22 63.4725C178.045 63.526 177.871 63.5795 177.692 63.633L176.668 63.9406L189.915 30.7534L190.469 31.373C190.469 31.373 190.492 31.3997 190.505 31.4131C190.537 31.4488 190.577 31.4889 190.613 31.5379C190.702 31.6583 190.791 31.7831 190.881 31.9034C191.064 32.1531 191.248 32.4071 191.435 32.6523C191.628 32.9064 191.668 33.1872 191.547 33.4814L191.556 33.4859Z" fill="url(#paint4_linear_1_77)"/>
<path d="M187.621 28.1412C186.798 30.2318 185.961 32.3626 185.152 34.422L173.354 64.5156C173.354 64.5156 173.349 64.5334 173.345 64.5423C173.327 64.5958 173.296 64.6805 173.238 64.7652C173.179 64.8499 173.063 65.0238 172.84 65.0906C172.289 65.26 171.726 65.425 171.185 65.5854L170.885 65.6746C170.836 65.688 170.787 65.6969 170.738 65.6969C170.67 65.6969 170.599 65.6835 170.527 65.6523H170.514L170.013 65.4695L186.015 25.3774L186.57 26.0461C186.57 26.0461 186.601 26.0817 186.614 26.0996C186.65 26.1441 186.686 26.1842 186.713 26.2244C186.798 26.3358 186.878 26.4517 186.963 26.5676C187.138 26.8083 187.321 27.0579 187.5 27.2942C187.697 27.5527 187.737 27.838 187.616 28.1456L187.621 28.1412Z" fill="url(#paint5_linear_1_77)"/>
<path d="M183.855 22.3329L170.348 56.7816L169.807 56.6612C168.497 60.0045 167.146 63.4413 165.822 66.8291C165.697 67.1456 165.474 67.3418 165.161 67.4131C165.053 67.4354 164.941 67.471 164.816 67.5112C164.754 67.529 164.687 67.5513 164.615 67.5736L163.649 67.8589L163.984 66.9094C163.993 66.8782 164.007 66.8514 164.016 66.8202C164.038 66.7578 164.056 66.7043 164.074 66.6553C165.948 61.9569 167.822 57.2586 169.7 52.5647C169.74 52.4666 169.758 52.3819 169.758 52.2927C169.758 52.1501 169.758 52.0074 169.763 51.8693C169.763 51.6553 169.772 51.428 169.772 51.214C169.772 51.0089 169.812 50.8083 169.892 50.6033C171.891 45.6018 173.886 40.6003 175.885 35.5944L181.672 21.1025C181.695 21.049 181.717 21 181.74 20.9376L182.133 19.9881L183.859 22.3329H183.855Z" fill="url(#paint6_linear_1_77)"/>
<path d="M179.897 17.0327L170.107 42.0045C170.089 42.058 170.067 42.107 170.044 42.156L169.897 42.5082L169.329 42.5528C168.64 44.2511 167.965 45.9673 167.312 47.6389L167.137 48.0803C166.592 49.471 166.046 50.8663 165.501 52.2571L164.494 54.8291C163.613 57.0713 162.737 59.3135 161.856 61.5557L158.935 68.9956L158.381 68.5052C158.381 68.5052 158.363 68.4874 158.354 68.4829C158.309 68.4473 158.242 68.3938 158.179 68.3046C158.135 68.2422 158.09 68.1754 158.05 68.1085C158.005 68.0416 157.965 67.9748 157.92 67.9213C157.746 67.6805 157.719 67.4131 157.835 67.1233C158.072 66.5394 158.309 65.9421 158.542 65.3626L159.543 62.8485C162.553 55.3106 165.559 47.7771 168.573 40.2392C168.591 40.1947 168.591 40.1813 168.591 40.1813C168.56 40.0788 168.542 39.9852 168.524 39.896C168.506 39.8069 168.484 39.7266 168.461 39.6508C168.39 39.419 168.403 39.1828 168.501 38.9331C169.092 37.4621 169.678 35.9911 170.268 34.5201L177.433 16.5691C177.455 16.5156 177.477 16.4621 177.5 16.4042L177.665 16.0119L179.897 17.0372V17.0327Z" fill="url(#paint7_linear_1_77)"/>
<path d="M174.441 15.5394L166.976 34.578L166.672 33.8514L155.514 62.318C155.5 62.3536 155.478 62.3893 155.46 62.4294C155.415 62.5007 155.366 62.5498 155.344 62.5631L155.071 62.8172L154.745 62.6389C154.543 62.5319 154.454 62.3626 154.409 62.2734C154.405 62.2645 154.4 62.2556 154.391 62.2422C154.373 62.2154 154.355 62.1887 154.333 62.1575C154.235 62.0238 154.101 61.8365 154.078 61.5869C154.056 61.3417 154.154 61.1367 154.226 60.9896C154.239 60.9584 154.257 60.9272 154.27 60.8915C158.206 51.0312 162.052 41.3938 165.854 31.8811C165.823 31.8187 165.8 31.7608 165.778 31.7117C165.764 31.6761 165.746 31.636 165.738 31.6181C165.59 31.3596 165.577 31.0787 165.697 30.7845C166.051 29.9064 166.408 29.0104 166.757 28.1412L171.69 15.7845C171.708 15.74 171.73 15.6909 171.753 15.6419L171.936 15.214L174.441 15.5349V15.5394Z" fill="url(#paint8_linear_1_77)"/>
<path d="M168.694 14.8039L163.716 27.5037L163.358 26.9198L151.596 56.9242L151.109 56.7236C150.858 56.6211 150.755 56.4205 150.711 56.3358C150.711 56.3314 150.706 56.3224 150.702 56.318C150.688 56.2957 150.666 56.2645 150.648 56.2377C150.554 56.104 150.424 55.9212 150.397 55.6761C150.371 55.4309 150.469 55.2303 150.541 55.0832C150.554 55.052 150.572 55.0253 150.581 54.9941C154.221 45.8782 158.345 35.5453 162.406 25.3863C162.298 25.2437 162.155 25.0475 162.128 24.7935C162.106 24.5572 162.2 24.3611 162.267 24.2318C162.28 24.205 162.294 24.1783 162.307 24.1516C163.519 21.1204 164.727 18.0892 165.939 15.0579C165.957 15.0089 165.979 14.9599 166.001 14.9108L166.189 14.4874L168.694 14.8128V14.8039Z" fill="url(#paint9_linear_1_77)"/>
<path d="M163.551 12.5215L159.928 21.7756L159.53 21.2987L147.701 51.4859L147.159 50.6077C147.124 50.5498 147.088 50.4918 147.052 50.4383C146.958 50.2868 146.864 50.1441 146.784 49.9881C146.645 49.7251 146.752 49.4576 146.784 49.3685C146.985 48.8603 147.186 48.3521 147.392 47.844L148.608 44.7949L158.492 20.0461C158.492 20.0461 158.479 20.0327 158.47 20.0238C158.282 19.8544 158.094 19.5513 158.282 19.0877C158.635 18.2229 158.984 17.3358 159.329 16.4844L159.682 15.6018C160.174 14.3715 160.666 13.1367 161.158 11.9019C161.176 11.8529 161.198 11.8083 161.22 11.7548L161.507 11.0995L163.555 12.5171L163.551 12.5215Z" fill="url(#paint10_linear_1_77)"/>
<path d="M158.801 9.2318L155.737 17.0505L155.304 16.6538L143.989 45.5305L143.443 44.6568C143.407 44.5988 143.371 44.5453 143.34 44.4918C143.251 44.3536 143.166 44.2199 143.094 44.0773C142.978 43.8499 143.032 43.6092 143.094 43.4487C143.269 43.0074 143.443 42.5706 143.617 42.1293L143.814 41.6345C147.276 32.9688 150.737 24.3031 154.199 15.6419L153.77 15.2452L156.739 7.80981L158.797 9.23626L158.801 9.2318Z" fill="url(#paint11_linear_1_77)"/>
<path d="M154.047 5.93758L151.234 13.1233L150.773 12.8024C150.532 13.4131 150.295 14.0238 150.062 14.6166C149.888 15.0669 149.713 15.5126 149.539 15.9584C149.194 16.8365 148.85 17.7147 148.506 18.5929L143.586 31.159C143.107 32.3804 142.629 33.6018 142.15 34.8232L140.29 39.5617L139.641 38.5319C139.565 38.416 139.498 38.3046 139.431 38.1976C139.306 38.0015 139.297 37.7786 139.404 37.5334V37.5201C139.641 36.9406 139.87 36.3655 140.102 35.786L149.619 11.9732L149.163 11.6434L152.007 4.52005L154.047 5.93313V5.93758Z" fill="url(#paint12_linear_1_77)"/>
<path d="M149.297 2.64338L146.453 9.90936L145.965 9.65081C145.375 11.1486 144.789 12.6464 144.203 14.1441C143.836 15.0802 143.47 16.0163 143.103 16.9524C142.495 18.5037 141.887 20.055 141.278 21.6107C140.862 22.6716 140.451 23.7325 140.035 24.789C139.333 26.581 138.631 28.3774 137.924 30.1828L136.578 33.6152L136.032 32.7459C135.996 32.6924 135.97 32.6434 135.938 32.5944C135.885 32.5052 135.844 32.4383 135.8 32.3804C135.683 32.2155 135.576 31.948 135.715 31.6048C135.88 31.2036 136.046 30.789 136.207 30.3878L137.615 26.8663L144.762 8.99554L144.279 8.72808L147.271 1.24814L149.293 2.64784L149.297 2.64338Z" fill="url(#paint13_linear_1_77)"/>
<path d="M143.774 1.39525L141.533 7.04755L141.046 6.789C140.455 8.28678 139.87 9.78455 139.284 11.2823C138.917 12.2184 138.55 13.1545 138.183 14.0906C137.575 15.6419 136.967 17.1976 136.359 18.7489C135.943 19.8098 135.531 20.8707 135.115 21.9317C134.413 23.7236 134.986 22.3462 134.279 24.1516L132.933 27.584L132.387 26.7147C132.352 26.6612 132.325 26.6122 132.293 26.5632C132.24 26.474 132.2 26.4071 132.155 26.3492C132.039 26.1843 131.931 25.9168 132.07 25.5736C132.235 25.1724 132.401 24.7578 132.562 24.3566L132.946 23.3536L139.834 6.13819L139.355 5.87073L141.743 0L143.765 1.3997L143.774 1.39525Z" fill="url(#paint14_linear_1_77)"/>
<path d="M132.714 12.633L129.172 21.6865L128.626 20.8217C128.599 20.7771 128.572 20.737 128.546 20.7013C128.474 20.5943 128.403 20.4829 128.344 20.3492C128.233 20.0995 128.331 19.8588 128.376 19.7429C128.702 18.9227 129.029 18.1025 129.36 17.2823L129.704 16.4264C130.174 15.2541 130.643 14.0817 131.113 12.9094C131.135 12.8559 131.157 12.8024 131.184 12.7489L131.399 12.2719L132.718 12.6374L132.714 12.633Z" fill="url(#paint15_linear_1_77)"/>
<defs>
<linearGradient id="paint0_linear_1_77" x1="199.284" y1="76.9034" x2="214.399" y2="27.4491" gradientUnits="userSpaceOnUse">
<stop offset="0.18" stop-color="#00D5D9"/>
<stop offset="0.61" stop-color="#A63DF3"/>
<stop offset="1" stop-color="#C485FF"/>
</linearGradient>
<linearGradient id="paint1_linear_1_77" x1="193.596" y1="75.945" x2="208.897" y2="25.8752" gradientUnits="userSpaceOnUse">
<stop offset="0.18" stop-color="#00D5D9"/>
<stop offset="0.61" stop-color="#A63DF3"/>
<stop offset="1" stop-color="#C485FF"/>
</linearGradient>
<linearGradient id="paint2_linear_1_77" x1="187.884" y1="74.6568" x2="203.137" y2="24.7609" gradientUnits="userSpaceOnUse">
<stop offset="0.18" stop-color="#00D5D9"/>
<stop offset="0.61" stop-color="#A63DF3"/>
<stop offset="1" stop-color="#C485FF"/>
</linearGradient>
<linearGradient id="paint3_linear_1_77" x1="182.451" y1="73.3908" x2="197.552" y2="23.9766" gradientUnits="userSpaceOnUse">
<stop offset="0.18" stop-color="#00D5D9"/>
<stop offset="0.61" stop-color="#A63DF3"/>
<stop offset="1" stop-color="#C485FF"/>
</linearGradient>
<linearGradient id="paint4_linear_1_77" x1="176.874" y1="72.2407" x2="191.979" y2="22.831" gradientUnits="userSpaceOnUse">
<stop offset="0.18" stop-color="#00D5D9"/>
<stop offset="0.61" stop-color="#A63DF3"/>
<stop offset="1" stop-color="#C485FF"/>
</linearGradient>
<linearGradient id="paint5_linear_1_77" x1="171.359" y1="71.0461" x2="186.438" y2="21.7033" gradientUnits="userSpaceOnUse">
<stop offset="0.18" stop-color="#00D5D9"/>
<stop offset="0.61" stop-color="#A63DF3"/>
<stop offset="1" stop-color="#C485FF"/>
</linearGradient>
<linearGradient id="paint6_linear_1_77" x1="166.091" y1="70.003" x2="181.179" y2="20.6423" gradientUnits="userSpaceOnUse">
<stop offset="0.18" stop-color="#00D5D9"/>
<stop offset="0.61" stop-color="#A63DF3"/>
<stop offset="1" stop-color="#C485FF"/>
</linearGradient>
<linearGradient id="paint7_linear_1_77" x1="160.661" y1="68.737" x2="175.705" y2="19.5146" gradientUnits="userSpaceOnUse">
<stop offset="0.18" stop-color="#00D5D9"/>
<stop offset="0.61" stop-color="#A63DF3"/>
<stop offset="1" stop-color="#C485FF"/>
</linearGradient>
<linearGradient id="paint8_linear_1_77" x1="155.272" y1="67.6761" x2="170.392" y2="18.2218" gradientUnits="userSpaceOnUse">
<stop offset="0.18" stop-color="#00D5D9"/>
<stop offset="0.61" stop-color="#A63DF3"/>
<stop offset="1" stop-color="#C485FF"/>
</linearGradient>
<linearGradient id="paint9_linear_1_77" x1="149.874" y1="66.5661" x2="164.985" y2="17.1297" gradientUnits="userSpaceOnUse">
<stop offset="0.18" stop-color="#00D5D9"/>
<stop offset="0.61" stop-color="#A63DF3"/>
<stop offset="1" stop-color="#C485FF"/>
</linearGradient>
<linearGradient id="paint10_linear_1_77" x1="144.552" y1="65.425" x2="159.582" y2="16.2472" gradientUnits="userSpaceOnUse">
<stop offset="0.18" stop-color="#00D5D9"/>
<stop offset="0.61" stop-color="#A63DF3"/>
<stop offset="1" stop-color="#C485FF"/>
</linearGradient>
<linearGradient id="paint11_linear_1_77" x1="139.257" y1="64.3328" x2="154.283" y2="15.1729" gradientUnits="userSpaceOnUse">
<stop offset="0.18" stop-color="#00D5D9"/>
<stop offset="0.61" stop-color="#A63DF3"/>
<stop offset="1" stop-color="#C485FF"/>
</linearGradient>
<linearGradient id="paint12_linear_1_77" x1="133.953" y1="63.2362" x2="148.974" y2="14.0942" gradientUnits="userSpaceOnUse">
<stop offset="0.18" stop-color="#00D5D9"/>
<stop offset="0.61" stop-color="#A63DF3"/>
<stop offset="1" stop-color="#C485FF"/>
</linearGradient>
<linearGradient id="paint13_linear_1_77" x1="128.657" y1="62.1397" x2="143.674" y2="13.011" gradientUnits="userSpaceOnUse">
<stop offset="0.18" stop-color="#00D5D9"/>
<stop offset="0.61" stop-color="#A63DF3"/>
<stop offset="1" stop-color="#C485FF"/>
</linearGradient>
<linearGradient id="paint14_linear_1_77" x1="123.304" y1="60.9985" x2="138.308" y2="11.9144" gradientUnits="userSpaceOnUse">
<stop offset="0.18" stop-color="#00D5D9"/>
<stop offset="0.61" stop-color="#A63DF3"/>
<stop offset="1" stop-color="#C485FF"/>
</linearGradient>
<linearGradient id="paint15_linear_1_77" x1="117.213" y1="59.523" x2="132.163" y2="10.6084" gradientUnits="userSpaceOnUse">
<stop offset="0.18" stop-color="#00D5D9"/>
<stop offset="0.61" stop-color="#A63DF3"/>
<stop offset="1" stop-color="#C485FF"/>
</linearGradient>
</defs>
</svg>
